<svg xmlns="http://www.w3.org/2000/svg" viewBox="0 0 707 366"><defs><style>.cls-1{fill:#c7c7c7;}.cls-2{fill:#2e3c50;}</style></defs><title>Asset 2</title><g id="Layer_2" data-name="Layer 2"><g id="Layer_1-2" data-name="Layer 1"><rect class="cls-1" x="12" y="9" width="682" height="341"/><path class="cls-2" d="M80.82,284.29h69.43V313.6H51.5V51.92H80.82Z"/><path class="cls-2" d="M310.11,254.63c0,38.72-24.78,64.55-62.45,64.55s-62.1-25.83-62.1-64.55V51.92h29.31V254.63c0,21.28,12.91,35.24,32.79,35.24,20.23,0,33.14-14,33.14-35.24V51.92h29.31Z"/><path class="cls-2" d="M481.2,254.63c0,38.72-24.77,64.55-62.46,64.55s-62.1-25.83-62.1-64.55V110.88c0-38.72,24.43-64.54,62.1-64.54s62.46,25.82,62.46,64.54v9.42H451.9v-9.42c0-21.28-12.92-35.24-33.16-35.24-19.88,0-32.8,14-32.8,35.24V254.63c0,21.28,12.92,35.24,32.8,35.24,20.24,0,33.16-14,33.16-35.24v-9.42h29.3Z"/><path class="cls-2" d="M654,51.92,591.9,181.71V313.6H562.59V181.71L500.13,51.92h30l47.1,99.43L624,51.92Z"/><path class="cls-2" d="M0,0V366H707V0ZM677,336H28V30H677Z"/></g></g></svg>